<?xml version="1.0" encoding="UTF-8"?>
<svg version="1.1" xmlns="http://www.w3.org/2000/svg" width="253" height="65">
<path d="M0 0 C15.51 0 31.02 0 47 0 C47 17.16 47 34.32 47 52 C6.41 52 -34.18 52 -76 52 C-76 42.1 -76 32.2 -76 22 C-60.49 22 -44.98 22 -29 22 C-26.525 26.95 -26.525 26.95 -24 32 C-19.36467814 35.11992818 -15.45533642 35.42552604 -10.08203125 34.57421875 C-6.95729094 33.71242358 -5.1766875 32.37456819 -3 30 C-1.19020861 26.27827097 -0.71260619 23.15970129 -0.5859375 19.04296875 C-0.55032715 18.04031982 -0.5147168 17.0376709 -0.47802734 16.00463867 C-0.42702881 14.11515503 -0.42702881 14.11515503 -0.375 12.1875 C-0.25125 8.165625 -0.1275 4.14375 0 0 Z " fill="#FFFFFF" transform="translate(206,13)"/>
<path d="M0 0 C6.53278786 -0.02527002 13.06556321 -0.04283292 19.59838867 -0.05493164 C21.82267732 -0.05997317 24.04696263 -0.06680623 26.27124023 -0.07543945 C29.46078309 -0.08751298 32.65028229 -0.09322996 35.83984375 -0.09765625 C37.34139259 -0.10539818 37.34139259 -0.10539818 38.87327576 -0.11329651 C39.79415482 -0.11337204 40.71503387 -0.11344757 41.66381836 -0.11352539 C42.47878281 -0.115746 43.29374725 -0.11796661 44.13340759 -0.12025452 C46 0 46 0 47 1 C47.12087702 2.45501502 47.17956797 3.91530965 47.2109375 5.375 C47.23929688 6.27863281 47.26765625 7.18226562 47.296875 8.11328125 C47.34810784 10.00633481 47.39261425 11.89958496 47.4296875 13.79296875 C47.65685581 20.50389927 48.24214382 27.60571546 52.625 33 C57.80638396 35.18163535 62.39059191 35.42213983 67.8125 34 C72.62324962 30.98149043 74.20704345 27.37886966 76 22 C91.51 22 107.02 22 123 22 C123 31.9 123 41.8 123 52 C107.11044555 52.02254723 91.22090371 52.04097929 75.33133793 52.05181217 C67.95404044 52.05697508 60.57675357 52.06401767 53.19946289 52.07543945 C46.7716782 52.08538646 40.3439012 52.09185347 33.91610903 52.09408849 C30.51060722 52.09539557 27.10512742 52.09848125 23.69963264 52.10573006 C19.90398959 52.11293606 16.10839288 52.11399113 12.31274414 52.11352539 C11.17554932 52.11712067 10.03835449 52.12071594 8.86669922 52.12442017 C7.83879776 52.1230455 6.8108963 52.12167084 5.75184631 52.12025452 C4.85309815 52.12117631 3.95434999 52.1220981 3.02836704 52.12304783 C1 52 1 52 0 51 C-0.09333705 49.40389018 -0.11745372 47.80366572 -0.11352539 46.20483398 C-0.11344986 45.18385117 -0.11337433 44.16286835 -0.11329651 43.11094666 C-0.10813522 42.0005452 -0.10297394 40.89014374 -0.09765625 39.74609375 C-0.0962413 38.61551041 -0.09482635 37.48492706 -0.09336853 36.32008362 C-0.08775019 32.69252935 -0.07519458 29.06503576 -0.0625 25.4375 C-0.05748736 22.98502693 -0.05292405 20.5325529 -0.04882812 18.08007812 C-0.0377748 12.05336455 -0.02101884 6.02668661 0 0 Z " fill="#FFFFFF" transform="translate(0,13)"/>
<path d="M0 0 C12.39569933 -1.2378507 12.39569933 -1.2378507 16.171875 1.67578125 C17.26685607 3.10186375 18.33487678 4.54905126 19.375 6.015625 C22.21378565 9.48221902 25.67387694 10.38400539 30 11 C36.56408389 11.32045134 41.1660286 9.84988311 46.50390625 6.05859375 C49 5 49 5 58 5 C58 12.92 58 20.84 58 29 C24.67 29 -8.66 29 -43 29 C-43 21.08 -43 13.16 -43 5 C-32.45138889 5 -32.45138889 5 -27.05859375 8.80859375 C-22.55098165 11.41736356 -17.57457802 11.42909634 -12.5390625 10.58984375 C-6.93753179 9.03593074 -4.24908345 6.77209132 -1 2 C-0.67 1.34 -0.34 0.68 0 0 Z " fill="#FFFFFF" transform="translate(119,0)"/>
</svg>
